<svg width="96" height="96" viewBox="0 0 96 96" fill="none" xmlns="http://www.w3.org/2000/svg">
<g filter="url(#filter0_d_184_566)">
<circle cx="48" cy="46" r="40" fill="white"/>
</g>
<path fill-rule="evenodd" clip-rule="evenodd" d="M53.9126 28H42.0874C35.4117 28 30 33.4117 30 40.0874V51.9126C30 58.5883 35.4117 64 42.0874 64H53.9126C60.5883 64 66 58.5883 66 51.9126V40.0874C66 33.4117 60.5883 28 53.9126 28ZM47.1669 34.6811C47.8234 34.1328 48.778 34.1328 49.4344 34.6811C52.1354 36.9369 55.2168 36.922 56.4829 36.9159H56.4831L56.4958 36.9158C56.552 36.9155 56.6046 36.9153 56.6533 36.9153C57.127 36.9153 57.5808 37.1053 57.9133 37.4428C58.2457 37.7802 58.4288 38.2369 58.4217 38.7106C58.3611 42.7333 58.1998 45.6393 57.8765 47.7895C57.5535 49.9374 57.0462 51.5033 56.1721 52.7181C55.2889 53.9456 54.1579 54.6279 53.0713 55.2284C52.8789 55.3347 52.6847 55.4401 52.4878 55.5469C51.5461 56.0579 50.5384 56.6047 49.3316 57.4704C48.7154 57.9124 47.886 57.9124 47.2698 57.4704C46.0641 56.6054 45.0577 56.0589 44.1175 55.5484L44.1125 55.5456C43.9163 55.439 43.723 55.334 43.5313 55.2281C42.4454 54.6273 41.3157 53.9446 40.4341 52.7165C39.5619 51.5017 39.0565 49.9358 38.7348 47.7885C38.4127 45.6389 38.2521 42.7331 38.1914 38.7106C38.1842 38.2369 38.3674 37.7802 38.6998 37.4428C39.0322 37.1053 39.4861 36.9153 39.9599 36.9153C40.008 36.9153 40.0599 36.9155 40.1155 36.9158L40.1284 36.9159C41.3841 36.922 44.4658 36.9371 47.1669 34.6811ZM48.2978 38.2405C45.8978 39.8285 43.4288 40.2827 41.7603 40.4088C41.8376 43.4646 41.9886 45.6528 42.2301 47.2642C42.5157 49.1706 42.9052 50.0971 43.3046 50.6535C43.6946 51.1966 44.2131 51.5641 45.2408 52.1327C45.4044 52.2232 45.5789 52.3178 45.7637 52.4179L45.7648 52.4185C46.4711 52.8014 47.3273 53.2656 48.2979 53.8936C49.2704 53.2644 50.1285 52.7997 50.8362 52.4163L50.8365 52.4162L50.8376 52.4156L50.8584 52.4043C51.0343 52.309 51.2008 52.2188 51.3574 52.1323C52.3866 51.5635 52.9068 51.1957 53.298 50.6519C53.6985 50.0955 54.0891 49.1691 54.3756 47.2634C54.6179 45.6524 54.7696 43.4646 54.847 40.4094C53.175 40.2841 50.7016 39.8309 48.2978 38.2405Z" fill="#009FE8"/>
<defs>
<filter id="filter0_d_184_566" x="0" y="0" width="96" height="96" filterUnits="userSpaceOnUse" color-interpolation-filters="sRGB">
<feFlood flood-opacity="0" result="BackgroundImageFix"/>
<feColorMatrix in="SourceAlpha" type="matrix" values="0 0 0 0 0 0 0 0 0 0 0 0 0 0 0 0 0 0 127 0" result="hardAlpha"/>
<feOffset dy="2"/>
<feGaussianBlur stdDeviation="4"/>
<feComposite in2="hardAlpha" operator="out"/>
<feColorMatrix type="matrix" values="0 0 0 0 0 0 0 0 0 0 0 0 0 0 0 0 0 0 0.08 0"/>
<feBlend mode="normal" in2="BackgroundImageFix" result="effect1_dropShadow_184_566"/>
<feBlend mode="normal" in="SourceGraphic" in2="effect1_dropShadow_184_566" result="shape"/>
</filter>
</defs>
</svg>
