<svg width="96" height="96" viewBox="0 0 96 96" fill="none" xmlns="http://www.w3.org/2000/svg">
<g filter="url(#filter0_d_184_580)">
<circle cx="48" cy="46" r="40" fill="white"/>
</g>
<path d="M47.5068 50.2597C48.9447 50.283 52.0733 50.3336 52.0954 48.3266C52.1173 46.2497 49.0072 46.3136 47.5459 46.3436C47.3955 46.3467 47.2626 46.3494 47.1523 46.3494V50.2557C47.2531 50.2557 47.3726 50.2576 47.5068 50.2597Z" fill="#009FE8"/>
<path d="M47.393 44.572C48.5519 44.6111 51.2803 44.7032 51.3029 42.8293C51.3247 40.9286 48.7335 40.9875 47.5111 41.0154C47.3845 41.0183 47.2725 41.0209 47.1797 41.0209V44.5654C47.2426 44.567 47.3141 44.5694 47.393 44.572Z" fill="#009FE8"/>
<path fill-rule="evenodd" clip-rule="evenodd" d="M63.8158 39.5258C63.8158 58.7676 48.4079 64 48.4079 64C48.4079 64 33 58.7676 33 39.5258V32.6055C33 31.858 33.5787 31.2311 34.3262 31.1829C37.1232 31.0623 43.7542 30.4836 48.4079 28C53.0616 30.4836 59.6926 31.0623 62.4896 31.1829C63.2371 31.2311 63.8158 31.858 63.8158 32.6055V39.5258ZM50.361 39.0194C52.6517 39.2364 54.4361 39.9598 54.6289 42.0576C54.7736 43.6008 54.1226 44.517 53.0857 44.9994C54.7736 45.4092 55.8105 46.4461 55.5934 48.6886C55.304 51.4856 53.2304 52.233 50.2405 52.3777V55.3195H48.4561V52.426C47.998 52.426 47.5157 52.426 47.0335 52.4019V55.3195H45.2732V52.3777C44.8634 52.3536 42.0422 52.3777 42.0422 52.3777L42.0663 50.2318H44.0677V40.852H41.8011V38.9953C41.8011 38.9953 44.984 38.9711 45.3697 38.9711L45.3456 36.0536H47.1299V38.9229H48.5767V36.0777H50.361V39.0194Z" fill="#009FE8"/>
<defs>
<filter id="filter0_d_184_580" x="0" y="0" width="96" height="96" filterUnits="userSpaceOnUse" color-interpolation-filters="sRGB">
<feFlood flood-opacity="0" result="BackgroundImageFix"/>
<feColorMatrix in="SourceAlpha" type="matrix" values="0 0 0 0 0 0 0 0 0 0 0 0 0 0 0 0 0 0 127 0" result="hardAlpha"/>
<feOffset dy="2"/>
<feGaussianBlur stdDeviation="4"/>
<feComposite in2="hardAlpha" operator="out"/>
<feColorMatrix type="matrix" values="0 0 0 0 0 0 0 0 0 0 0 0 0 0 0 0 0 0 0.08 0"/>
<feBlend mode="normal" in2="BackgroundImageFix" result="effect1_dropShadow_184_580"/>
<feBlend mode="normal" in="SourceGraphic" in2="effect1_dropShadow_184_580" result="shape"/>
</filter>
</defs>
</svg>
