<svg width="96" height="96" viewBox="0 0 96 96" fill="none" xmlns="http://www.w3.org/2000/svg">
<g filter="url(#filter0_d_184_565)">
<circle cx="48" cy="46" r="40" fill="white"/>
</g>
<path d="M63.7987 30L50.3301 40.0033L52.8208 34.1015L63.7987 30Z" fill="#E2761B" stroke="#E2761B" stroke-linecap="round" stroke-linejoin="round"/>
<path d="M32.7012 30L46.0615 40.0981L43.6927 34.1015L32.7012 30Z" fill="#E4761B" stroke="#E4761B" stroke-linecap="round" stroke-linejoin="round"/>
<path d="M58.9504 53.1877L55.3633 58.6835L63.0384 60.7951L65.2448 53.3096L58.9504 53.1877Z" fill="#E4761B" stroke="#E4761B" stroke-linecap="round" stroke-linejoin="round"/>
<path d="M31.2812 53.3096L33.4741 60.7951L41.1492 58.6835L37.5621 53.1877L31.2812 53.3096Z" fill="#E4761B" stroke="#E4761B" stroke-linecap="round" stroke-linejoin="round"/>
<path d="M40.7169 43.9018L38.5781 47.1369L46.1991 47.4754L45.9283 39.2859L40.7169 43.9018Z" fill="#E4761B" stroke="#E4761B" stroke-linecap="round" stroke-linejoin="round"/>
<path d="M55.7833 43.9018L50.5041 39.1912L50.3281 47.4754L57.9355 47.137L55.7833 43.9018Z" fill="#E4761B" stroke="#E4761B" stroke-linecap="round" stroke-linejoin="round"/>
<path d="M41.1484 58.6835L45.7237 56.45L41.7711 53.3638L41.1484 58.6835Z" fill="#E4761B" stroke="#E4761B" stroke-linecap="round" stroke-linejoin="round"/>
<path d="M50.7734 56.45L55.3622 58.6835L54.726 53.3638L50.7734 56.45Z" fill="#E4761B" stroke="#E4761B" stroke-linecap="round" stroke-linejoin="round"/>
<path d="M55.3642 58.6832L50.7754 56.4497L51.1409 59.4412L51.1003 60.7001L55.3642 58.6832Z" fill="#D7C1B3" stroke="#D7C1B3" stroke-linecap="round" stroke-linejoin="round"/>
<path d="M41.1523 58.6832L45.4163 60.7001L45.3892 59.4412L45.7276 56.4497L41.1523 58.6832Z" fill="#D7C1B3" stroke="#D7C1B3" stroke-linecap="round" stroke-linejoin="round"/>
<path d="M45.4852 51.3875L41.668 50.264L44.3617 49.0322L45.4852 51.3875Z" fill="#233447" stroke="#233447" stroke-linecap="round" stroke-linejoin="round"/>
<path d="M51.0195 51.3875L52.143 49.0322L54.8503 50.264L51.0195 51.3875Z" fill="#233447" stroke="#233447" stroke-linecap="round" stroke-linejoin="round"/>
<path d="M41.1535 58.6837L41.8033 53.188L37.5664 53.3098L41.1535 58.6837Z" fill="#CD6116" stroke="#CD6116" stroke-linecap="round" stroke-linejoin="round"/>
<path d="M54.7168 53.188L55.3665 58.6837L58.9537 53.3098L54.7168 53.188Z" fill="#CD6116" stroke="#CD6116" stroke-linecap="round" stroke-linejoin="round"/>
<path d="M57.9375 47.1372L50.3301 47.4756L51.034 51.3876L52.1575 49.0323L54.8647 50.2641L57.9375 47.1372Z" fill="#CD6116" stroke="#CD6116" stroke-linecap="round" stroke-linejoin="round"/>
<path d="M41.6683 50.2641L44.3756 49.0323L45.4855 51.3876L46.203 47.4756L38.582 47.1372L41.6683 50.2641Z" fill="#CD6116" stroke="#CD6116" stroke-linecap="round" stroke-linejoin="round"/>
<path d="M38.582 47.1372L41.7766 53.3639L41.6683 50.2641L38.582 47.1372Z" fill="#E4751F" stroke="#E4751F" stroke-linecap="round" stroke-linejoin="round"/>
<path d="M54.8678 50.2641L54.7324 53.3639L57.9405 47.1372L54.8678 50.2641Z" fill="#E4751F" stroke="#E4751F" stroke-linecap="round" stroke-linejoin="round"/>
<path d="M46.2018 47.4756L45.4844 51.3876L46.3778 56.0035L46.5808 49.9257L46.2018 47.4756Z" fill="#E4751F" stroke="#E4751F" stroke-linecap="round" stroke-linejoin="round"/>
<path d="M50.3303 47.4756L49.9648 49.9121L50.1273 56.0035L51.0342 51.3876L50.3303 47.4756Z" fill="#E4751F" stroke="#E4751F" stroke-linecap="round" stroke-linejoin="round"/>
<path d="M51.0339 51.3874L50.127 56.0033L50.7767 56.45L54.7293 53.3637L54.8647 50.2639L51.0339 51.3874Z" fill="#F6851B" stroke="#F6851B" stroke-linecap="round" stroke-linejoin="round"/>
<path d="M41.668 50.2639L41.7763 53.3637L45.7289 56.45L46.3786 56.0033L45.4852 51.3874L41.668 50.2639Z" fill="#F6851B" stroke="#F6851B" stroke-linecap="round" stroke-linejoin="round"/>
<path d="M51.1015 60.7005L51.1421 59.4416L50.8037 59.1438H45.7005L45.3892 59.4416L45.4163 60.7005L41.1523 58.6836L42.6413 59.9019L45.6599 62H50.8443L53.8765 59.9019L55.3655 58.6836L51.1015 60.7005Z" fill="#C0AD9E" stroke="#C0AD9E" stroke-linecap="round" stroke-linejoin="round"/>
<path d="M50.7761 56.4501L50.1264 56.0034H46.3768L45.7271 56.4501L45.3887 59.4416L45.7 59.1438H50.8032L51.1416 59.4416L50.7761 56.4501Z" fill="#161616" stroke="#161616" stroke-linecap="round" stroke-linejoin="round"/>
<path d="M64.3678 40.6531L65.5184 35.1303L63.7993 30L50.7773 39.6649L55.7858 43.9018L62.8653 45.9728L64.4355 44.1454L63.7587 43.6581L64.8416 42.67L64.0023 42.0202L65.0852 41.1945L64.3678 40.6531Z" fill="#763D16" stroke="#763D16" stroke-linecap="round" stroke-linejoin="round"/>
<path d="M31 35.1303L32.1506 40.6531L31.4196 41.1945L32.5025 42.0202L31.6768 42.67L32.7597 43.6581L32.0829 44.1454L33.6396 45.9728L40.7191 43.9018L45.7275 39.6649L32.7056 30L31 35.1303Z" fill="#763D16" stroke="#763D16" stroke-linecap="round" stroke-linejoin="round"/>
<path d="M62.8638 45.9732L55.7843 43.9021L57.9366 47.1373L54.7285 53.364L58.9518 53.3098H65.2462L62.8638 45.9732Z" fill="#F6851B" stroke="#F6851B" stroke-linecap="round" stroke-linejoin="round"/>
<path d="M40.72 43.9021L33.6405 45.9732L31.2852 53.3098H37.566L41.7758 53.364L38.5812 47.1373L40.72 43.9021Z" fill="#F6851B" stroke="#F6851B" stroke-linecap="round" stroke-linejoin="round"/>
<path d="M50.3301 47.4757L50.7768 39.6652L52.8343 34.1018H43.6973L45.7277 39.6652L46.2015 47.4757L46.3639 49.9393L46.3775 56.0036H50.127L50.1541 49.9393L50.3301 47.4757Z" fill="#F6851B" stroke="#F6851B" stroke-linecap="round" stroke-linejoin="round"/>
<defs>
<filter id="filter0_d_184_565" x="0" y="0" width="96" height="96" filterUnits="userSpaceOnUse" color-interpolation-filters="sRGB">
<feFlood flood-opacity="0" result="BackgroundImageFix"/>
<feColorMatrix in="SourceAlpha" type="matrix" values="0 0 0 0 0 0 0 0 0 0 0 0 0 0 0 0 0 0 127 0" result="hardAlpha"/>
<feOffset dy="2"/>
<feGaussianBlur stdDeviation="4"/>
<feComposite in2="hardAlpha" operator="out"/>
<feColorMatrix type="matrix" values="0 0 0 0 0 0 0 0 0 0 0 0 0 0 0 0 0 0 0.08 0"/>
<feBlend mode="normal" in2="BackgroundImageFix" result="effect1_dropShadow_184_565"/>
<feBlend mode="normal" in="SourceGraphic" in2="effect1_dropShadow_184_565" result="shape"/>
</filter>
</defs>
</svg>
