<svg width="512" height="512" viewBox="0 0 512 512" fill="none" xmlns="http://www.w3.org/2000/svg">
<path d="M256 112C247.2 112 240 104.8 240 96V16C240 7.156 247.2 0 256 0C264.8 0 272 7.156 272 16V96C272 104.8 264.8 112 256 112ZM272 496V416C272 407.156 264.844 400 256 400C247.156 400 240 407.2 240 416V496C240 504.844 247.156 512 256 512C264.844 512 272 504.8 272 496ZM512 256C512 247.156 504.844 240 496 240H416C407.156 240 400 247.156 400 256C400 264.844 407.156 272 416 272H496C504.8 272 512 264.8 512 256ZM112 256C112 247.156 104.844 240 96 240H16C7.156 240 0 247.2 0 256C0 264.8 7.156 272 16 272H96C104.8 272 112 264.8 112 256ZM380.5 154.2L437.06 97.61C443.31 91.36 443.31 81.23 437.06 74.99C430.81 68.75 420.68 68.74 414.44 74.99L357.88 131.58C351.63 137.83 351.63 147.95 357.88 154.2C361.005 157.325 365.099 158.891 369.19 158.891C373.281 158.891 377.3 157.3 380.5 154.2ZM97.61 437L154.17 380.41C160.42 374.16 160.42 364.04 154.17 357.79C147.92 351.54 137.79 351.537 131.55 357.787L74.99 414.377C68.74 420.627 68.74 430.757 74.99 436.997C78.115 440.122 82.209 441.685 86.3 441.685C90.391 441.685 94.48 440.2 97.61 437ZM437 437C443.25 430.75 443.25 420.62 437 414.38L380.44 357.79C374.19 351.54 364.06 351.543 357.82 357.793C351.58 364.043 351.57 374.163 357.82 380.413L414.38 437.003C417.505 440.128 421.599 441.691 425.69 441.691C429.781 441.691 433.9 440.2 437 437ZM154.2 154.2C160.45 147.95 160.45 137.83 154.2 131.58L97.61 74.97C91.36 68.72 81.23 68.72 74.99 74.97C68.75 81.22 68.74 91.35 74.99 97.59L131.55 154.18C134.675 157.305 138.769 158.868 142.86 158.868C146.951 158.868 151 157.3 154.2 154.2ZM368 256C368 194.25 317.75 144 256 144C194.25 144 144 194.3 144 256C144 317.7 194.25 368 256 368C317.75 368 368 317.8 368 256ZM336 256C336 300.13 300.11 336 256 336C211.89 336 176 300.1 176 256C176 211.9 211.9 176 256 176C300.1 176 336 211.9 336 256Z" fill="white"/>
</svg>
