<svg width="193" height="157" viewBox="0 0 193 157" fill="none" xmlns="http://www.w3.org/2000/svg">
<path d="M177.5 153L177.5 157L185.5 157L185.5 153L177.5 153ZM103.477 99.7495L99.8167 101.364L103.477 99.7495ZM118.313 37.0176L121.02 39.9623L118.313 37.0176ZM176.091 22.8107L174.205 26.3381L176.091 22.8107ZM186.848 48.9957L183.147 47.4783L186.848 48.9957ZM135.602 77.0185L135.411 73.0231L135.602 77.0185ZM7.78704 2.94648C6.82298 0.958798 4.43012 0.128985 2.44244 1.09305C0.454752 2.0571 -0.375054 4.44997 0.589004 6.43765L7.78704 2.94648ZM185.5 153C185.5 145.491 179.553 140.465 173.172 136.812C166.574 133.035 157.708 129.725 148.946 126.301C140.006 122.808 130.973 119.129 123.366 114.523C115.748 109.909 109.996 104.62 107.136 98.1353L99.8167 101.364C103.625 109.999 110.961 116.363 119.222 121.366C127.495 126.375 137.135 130.275 146.034 133.753C155.111 137.299 163.25 140.35 169.197 143.755C175.361 147.284 177.5 150.259 177.5 153L185.5 153ZM107.136 98.1353C99.3586 80.5009 104.798 54.8752 121.02 39.9623L115.606 34.0728C97.0663 51.1157 90.5479 80.3486 99.8167 101.364L107.136 98.1353ZM121.02 39.9623C137.027 25.2474 157.575 17.4459 174.205 26.3381L177.977 19.2834C156.734 7.92421 132.429 18.6077 115.606 34.0728L121.02 39.9623ZM174.205 26.3381C178.622 28.7005 181.77 31.7385 183.363 35.1466C184.902 38.441 185.189 42.4964 183.147 47.4783L190.549 50.5131C193.349 43.6839 193.192 37.2857 190.61 31.7599C188.081 26.3478 183.429 22.1988 177.977 19.2834L174.205 26.3381ZM183.147 47.4783C179.985 55.19 172.498 61.4093 163.185 65.8553C153.941 70.2685 143.501 72.6362 135.411 73.0231L135.793 81.0139C144.924 80.5773 156.407 77.9559 166.632 73.0747C176.787 68.2264 186.312 60.846 190.549 50.5131L183.147 47.4783ZM135.411 73.0231C83.0261 75.5282 28.9628 46.6063 7.78704 2.94648L0.589004 6.43765C23.363 53.3928 80.6935 83.6489 135.793 81.0139L135.411 73.0231Z" fill="white"/>
</svg>
