<svg width="139" height="38" viewBox="0 0 139 38" fill="none" xmlns="http://www.w3.org/2000/svg">
<path d="M24.4353 37.2959V10.8959H0.483307V37.2959H7.34731V17.4719H17.5713V37.2959H24.4353Z" fill="#F796FF"/>
<path d="M41.2777 10.3199C33.5017 10.3199 27.6457 16.2719 27.6457 24.1439C27.6457 31.9679 33.4537 37.9199 41.4697 37.9199C47.9017 37.9199 53.6137 34.0799 54.7177 27.5999H47.6137C46.9897 30.4799 44.4457 32.0639 41.5177 32.0639C37.6777 32.0639 34.8937 29.4719 34.6537 25.3919H54.7657C54.8617 24.5759 54.9577 23.5199 54.7657 22.1279C53.9497 14.9279 48.0937 10.3199 41.2777 10.3199ZM41.3737 15.9839C44.1577 15.9839 46.9417 17.5679 47.5657 20.8319H35.1337C35.9497 17.8559 38.3017 15.9839 41.3737 15.9839Z" fill="#F796FF"/>
<path d="M74.0369 17.4719V10.8959H57.9089V37.2959H64.7729V17.4719H74.0369Z" fill="#F796FF"/>
<path d="M83.1498 21.3599V0.335938H76.2858V37.2959H83.1498V26.3039L92.4138 37.2959H101.102L89.5818 23.6159L100.19 10.8959H91.5978L83.1498 21.3599Z" fill="#F796FF"/>
<path d="M113.943 10.3199C106.359 10.3199 100.167 16.1759 100.167 24.0959C100.167 32.0159 106.263 37.9199 113.943 37.9199C121.623 37.9199 127.671 32.0639 127.671 24.1439C127.671 16.1759 121.527 10.3199 113.943 10.3199ZM113.943 16.8479C117.783 16.8479 120.759 19.8239 120.759 24.1439C120.759 28.4639 117.783 31.3919 113.943 31.3919C110.151 31.3919 107.127 28.4639 107.127 24.1439C107.127 19.7759 110.103 16.8479 113.943 16.8479Z" fill="#F796FF"/>
<path d="M134.245 29.7599C131.797 29.7599 129.973 31.4879 129.973 33.8399C129.973 36.1919 131.797 37.9199 134.245 37.9199C136.693 37.9199 138.517 36.1919 138.517 33.8399C138.517 31.4879 136.693 29.7599 134.245 29.7599Z" fill="#F796FF"/>
</svg>
