<svg width="94" height="18" viewBox="0 0 94 18" fill="none" xmlns="http://www.w3.org/2000/svg">
<path d="M0.719971 0.200049H5.42397L13.008 9.44005C13.232 9.69605 13.432 9.99205 13.608 10.328C13.784 10.664 13.936 10.9921 14.064 11.312L14.088 11.288C13.976 10.984 13.88 10.64 13.8 10.256C13.736 9.87205 13.704 9.52005 13.704 9.20005V0.200049H18.216V17H13.488L5.92797 7.78405C5.70397 7.52805 5.50397 7.23205 5.32797 6.89605C5.15197 6.56005 4.99997 6.23205 4.87197 5.91205L4.82397 5.93605C4.95197 6.25605 5.04797 6.60805 5.11197 6.99205C5.19197 7.36005 5.23197 7.70405 5.23197 8.02405V17H0.719971V0.200049Z" fill="#888888"/>
<path d="M20.6175 0.200049H36.5775V4.30405H25.1295V7.06405H35.5215V10.448H25.1295V12.92H36.5775V17H20.6175V0.200049Z" fill="#888888"/>
<path d="M38.9447 17V0.200049H49.8167C51.7367 0.200049 53.2407 0.552049 54.3287 1.25605C55.4167 1.96005 55.9607 3.04805 55.9607 4.52005C55.9607 5.04805 55.8967 5.48805 55.7687 5.84005C55.6407 6.19205 55.4727 6.48005 55.2647 6.70405C55.0567 6.92805 54.8167 7.10405 54.5447 7.23205C54.2887 7.36005 54.0327 7.47205 53.7767 7.56805C53.4567 7.71205 53.0887 7.83205 52.6727 7.92805C52.2727 8.00805 51.8967 8.06405 51.5447 8.09605V8.14405C51.8967 8.11205 52.2887 8.11205 52.7207 8.14405C53.1527 8.17605 53.5287 8.26405 53.8487 8.40805C54.0887 8.50405 54.3447 8.64005 54.6167 8.81605C54.8887 8.97605 55.1367 9.24005 55.3607 9.60805C55.5847 9.97605 55.7687 10.472 55.9127 11.0961C56.0567 11.7041 56.1287 12.488 56.1287 13.448V17H51.6407V13.472C51.6407 12.832 51.4167 12.368 50.9687 12.08C50.5367 11.776 50.0007 11.6241 49.3607 11.6241L43.4807 11.6481V17H38.9447ZM48.4007 7.95205C48.7847 7.95205 49.1847 7.92005 49.6007 7.85605C50.0327 7.77605 50.4247 7.66405 50.7767 7.52005C51.1447 7.36005 51.4487 7.15205 51.6887 6.89605C51.9287 6.64005 52.0487 6.32005 52.0487 5.93605C52.0487 5.52005 51.9687 5.17605 51.8087 4.90405C51.6647 4.61605 51.4647 4.39205 51.2087 4.23205C50.9527 4.07205 50.6567 3.96005 50.3207 3.89605C49.9847 3.83205 49.6247 3.80005 49.2407 3.80005H43.4807V7.95205H48.4007Z" fill="#888888"/>
<path d="M58.5375 17V0.200049H63.0495V6.84805C63.0495 7.13605 63.0095 7.44805 62.9295 7.78405C62.8655 8.10405 62.7855 8.40005 62.6895 8.67205L62.7375 8.69605C62.8335 8.42405 62.9615 8.14405 63.1215 7.85605C63.2975 7.56805 63.4815 7.31205 63.6735 7.08805L69.6255 0.200049H75.5295L68.4255 8.40805L75.6495 17H69.6735L63.5775 9.70405L63.0495 13.5201V17H58.5375Z" fill="#888888"/>
<path d="M84.5499 17.168C83.3019 17.168 82.1259 16.992 81.0219 16.64C79.9179 16.288 78.9499 15.76 78.1179 15.056C77.3019 14.352 76.6539 13.464 76.1739 12.392C75.6939 11.32 75.4539 10.056 75.4539 8.60005C75.4539 7.14405 75.6939 5.88005 76.1739 4.80805C76.6539 3.72005 77.3019 2.82405 78.1179 2.12005C78.9499 1.40005 79.9179 0.872049 81.0219 0.536049C82.1259 0.184049 83.3019 0.0160495 84.5499 0.0320493C85.7979 0.0480491 86.9739 0.232049 88.0779 0.584049C89.1819 0.920049 90.1419 1.44805 90.9579 2.16805C91.7739 2.87205 92.4219 3.76005 92.9019 4.83205C93.3819 5.88805 93.6219 7.14405 93.6219 8.60005C93.6219 10.056 93.3819 11.32 92.9019 12.392C92.4219 13.464 91.7739 14.352 90.9579 15.056C90.1419 15.76 89.1819 16.288 88.0779 16.64C86.9739 16.992 85.7979 17.168 84.5499 17.168ZM84.5499 4.11205C83.9739 4.11205 83.4139 4.21605 82.8699 4.42405C82.3259 4.61605 81.8379 4.90405 81.4059 5.28805C80.9739 5.67205 80.6299 6.14405 80.3739 6.70405C80.1179 7.26405 79.9899 7.89605 79.9899 8.60005C79.9899 9.28805 80.1179 9.91205 80.3739 10.472C80.6299 11.032 80.9659 11.5041 81.3819 11.8881C81.8139 12.2721 82.3019 12.568 82.8459 12.776C83.4059 12.984 83.9739 13.088 84.5499 13.088C85.1579 13.088 85.7339 12.984 86.2779 12.776C86.8379 12.568 87.3259 12.2721 87.7419 11.8881C88.1579 11.5041 88.4859 11.032 88.7259 10.472C88.9819 9.91205 89.1099 9.28805 89.1099 8.60005C89.1099 7.89605 88.9819 7.27205 88.7259 6.72805C88.4699 6.16805 88.1259 5.69605 87.6939 5.31205C87.2779 4.92805 86.7899 4.63205 86.2299 4.42405C85.6859 4.21605 85.1259 4.11205 84.5499 4.11205Z" fill="#888888"/>
</svg>
