<svg width="139" height="38" viewBox="0 0 139 38" fill="none" xmlns="http://www.w3.org/2000/svg">
<path d="M24.4353 37.128V10.728H0.483307V37.128H7.34731V17.304H17.5713V37.128H24.4353Z" fill="#0F051D"/>
<path d="M24.4353 37.128V10.728H0.483307V37.128H7.34731V17.304H17.5713V37.128H24.4353Z" fill="white" fill-opacity="0.5"/>
<path d="M41.2777 10.152C33.5017 10.152 27.6457 16.104 27.6457 23.976C27.6457 31.8 33.4537 37.752 41.4697 37.752C47.9017 37.752 53.6137 33.912 54.7177 27.432H47.6137C46.9897 30.312 44.4457 31.896 41.5177 31.896C37.6777 31.896 34.8937 29.304 34.6537 25.224H54.7657C54.8617 24.408 54.9577 23.352 54.7657 21.96C53.9497 14.76 48.0937 10.152 41.2777 10.152ZM41.3737 15.816C44.1577 15.816 46.9417 17.4 47.5657 20.664H35.1337C35.9497 17.688 38.3017 15.816 41.3737 15.816Z" fill="#0F051D"/>
<path d="M41.2777 10.152C33.5017 10.152 27.6457 16.104 27.6457 23.976C27.6457 31.8 33.4537 37.752 41.4697 37.752C47.9017 37.752 53.6137 33.912 54.7177 27.432H47.6137C46.9897 30.312 44.4457 31.896 41.5177 31.896C37.6777 31.896 34.8937 29.304 34.6537 25.224H54.7657C54.8617 24.408 54.9577 23.352 54.7657 21.96C53.9497 14.76 48.0937 10.152 41.2777 10.152ZM41.3737 15.816C44.1577 15.816 46.9417 17.4 47.5657 20.664H35.1337C35.9497 17.688 38.3017 15.816 41.3737 15.816Z" fill="white" fill-opacity="0.5"/>
<path d="M74.0369 17.304V10.728H57.9089V37.128H64.7729V17.304H74.0369Z" fill="#0F051D"/>
<path d="M74.0369 17.304V10.728H57.9089V37.128H64.7729V17.304H74.0369Z" fill="white" fill-opacity="0.5"/>
<path d="M83.1498 21.192V0.167969H76.2858V37.128H83.1498V26.136L92.4138 37.128H101.102L89.5818 23.448L100.19 10.728H91.5978L83.1498 21.192Z" fill="#0F051D"/>
<path d="M83.1498 21.192V0.167969H76.2858V37.128H83.1498V26.136L92.4138 37.128H101.102L89.5818 23.448L100.19 10.728H91.5978L83.1498 21.192Z" fill="white" fill-opacity="0.5"/>
<path d="M113.943 10.152C106.359 10.152 100.167 16.008 100.167 23.928C100.167 31.848 106.263 37.752 113.943 37.752C121.623 37.752 127.671 31.896 127.671 23.976C127.671 16.008 121.527 10.152 113.943 10.152ZM113.943 16.68C117.783 16.68 120.759 19.656 120.759 23.976C120.759 28.296 117.783 31.224 113.943 31.224C110.151 31.224 107.127 28.296 107.127 23.976C107.127 19.608 110.103 16.68 113.943 16.68Z" fill="#0F051D"/>
<path d="M113.943 10.152C106.359 10.152 100.167 16.008 100.167 23.928C100.167 31.848 106.263 37.752 113.943 37.752C121.623 37.752 127.671 31.896 127.671 23.976C127.671 16.008 121.527 10.152 113.943 10.152ZM113.943 16.68C117.783 16.68 120.759 19.656 120.759 23.976C120.759 28.296 117.783 31.224 113.943 31.224C110.151 31.224 107.127 28.296 107.127 23.976C107.127 19.608 110.103 16.68 113.943 16.68Z" fill="white" fill-opacity="0.5"/>
<path d="M134.245 29.592C131.797 29.592 129.973 31.32 129.973 33.672C129.973 36.024 131.797 37.752 134.245 37.752C136.693 37.752 138.517 36.024 138.517 33.672C138.517 31.32 136.693 29.592 134.245 29.592Z" fill="#0F051D"/>
<path d="M134.245 29.592C131.797 29.592 129.973 31.32 129.973 33.672C129.973 36.024 131.797 37.752 134.245 37.752C136.693 37.752 138.517 36.024 138.517 33.672C138.517 31.32 136.693 29.592 134.245 29.592Z" fill="white" fill-opacity="0.5"/>
</svg>
