<svg width="139" height="39" viewBox="0 0 139 39" fill="none" xmlns="http://www.w3.org/2000/svg">
<path d="M24.4353 37.712V11.312H0.483307V37.712H7.34731V17.888H17.5713V37.712H24.4353Z" fill="#7C53FF"/>
<path d="M41.2777 10.736C33.5017 10.736 27.6457 16.688 27.6457 24.56C27.6457 32.384 33.4537 38.336 41.4697 38.336C47.9017 38.336 53.6137 34.496 54.7177 28.016H47.6137C46.9897 30.896 44.4457 32.48 41.5177 32.48C37.6777 32.48 34.8937 29.888 34.6537 25.808H54.7657C54.8617 24.992 54.9577 23.936 54.7657 22.544C53.9497 15.344 48.0937 10.736 41.2777 10.736ZM41.3737 16.4C44.1577 16.4 46.9417 17.984 47.5657 21.248H35.1337C35.9497 18.272 38.3017 16.4 41.3737 16.4Z" fill="#7C53FF"/>
<path d="M74.0369 17.888V11.312H57.9089V37.712H64.7729V17.888H74.0369Z" fill="#7C53FF"/>
<path d="M83.1498 21.776V0.751953H76.2858V37.712H83.1498V26.72L92.4138 37.712H101.102L89.5818 24.032L100.19 11.312H91.5978L83.1498 21.776Z" fill="#7C53FF"/>
<path d="M113.943 10.736C106.359 10.736 100.167 16.592 100.167 24.512C100.167 32.432 106.263 38.336 113.943 38.336C121.623 38.336 127.671 32.48 127.671 24.56C127.671 16.592 121.527 10.736 113.943 10.736ZM113.943 17.264C117.783 17.264 120.759 20.24 120.759 24.56C120.759 28.88 117.783 31.808 113.943 31.808C110.151 31.808 107.127 28.88 107.127 24.56C107.127 20.192 110.103 17.264 113.943 17.264Z" fill="#7C53FF"/>
<path d="M134.245 30.176C131.797 30.176 129.973 31.904 129.973 34.256C129.973 36.608 131.797 38.336 134.245 38.336C136.693 38.336 138.517 36.608 138.517 34.256C138.517 31.904 136.693 30.176 134.245 30.176Z" fill="#7C53FF"/>
</svg>
