<svg width="808" height="269" viewBox="0 0 808 269" fill="none" xmlns="http://www.w3.org/2000/svg">
<path fill-rule="evenodd" clip-rule="evenodd" d="M782.506 8.30286C768.303 51.8908 719.855 113.597 657.321 163.237C594.65 212.986 521.538 247.656 459.682 242.176C391.994 236.18 347.595 200.047 324.377 159.307C354.336 151.976 374.465 138.183 386.158 120.657C403.277 95.0024 400.442 64.0103 387.703 41.5349C375.215 19.5007 350.116 1.77963 323.085 11.9906C299.501 20.8999 285.939 42.0681 281.116 66.7115C276.876 88.3755 279.11 113.59 287.504 138.556C283.01 138.891 278.293 139.107 273.341 139.192C222.504 140.064 148.607 127.044 44.041 89.3744L80.9636 77.227C87.6181 75.0377 90.8373 67.7463 88.1538 60.941C85.4704 54.1358 77.9006 50.3939 71.2461 52.5832L0.00663608 76.0205L30.1465 152.458C32.8299 159.263 40.3997 163.005 47.0542 160.816C53.7087 158.626 56.9278 151.335 54.2445 144.53L42.9348 115.847C146.05 152.474 221.488 166.005 275.656 165.076C283.58 164.939 291.082 164.492 298.172 163.754C324.481 214.877 378.059 260.769 459.241 267.962C530.995 274.319 610.363 234.755 674.387 183.931C738.549 132.999 791.011 67.7953 807.279 17.869C809.444 11.2263 805.653 3.69981 798.812 1.05819C791.971 -1.58341 784.671 1.66013 782.506 8.30286ZM364.202 105.276C356.187 117.288 340.627 128.898 313.123 134.936C305.125 112.719 303.201 90.9477 306.635 73.4055C310.352 54.4125 319.985 41.5009 333.794 36.2845C344.156 32.3699 356.651 37.7468 365.296 53.0002C373.691 67.8124 375.53 88.2976 364.202 105.276Z" fill="#1C1C1C"/>
</svg>
